REM DIRINDEX 1\2,1\3,1\4,1\5
REM DIRNAME "folder01","folder02","folder03","folder04","folder05"
TITLE ""
FILE "1Q_t_0459-0468.mp3" MP3
  TRACK 01 AUDIO
    TITLE "3:cjc172_2305"
    INDEX 01 00:00:00
  TRACK 02 AUDIO
    TITLE "0:"
    INDEX 01 00:01:18
  TRACK 03 AUDIO
    TITLE "4:cjc172_2306"
    INDEX 01 00:01:33
  TRACK 04 AUDIO
    TITLE "0:"
    INDEX 01 00:04:24
  TRACK 05 AUDIO
    TITLE "5:cjc172_2307"
    INDEX 01 00:04:39
  TRACK 06 AUDIO
    TITLE "0:"
    INDEX 01 00:09:46
  TRACK 07 AUDIO
    TITLE "3:cjc172_2308"
    INDEX 01 00:10:28
  TRACK 08 AUDIO
    TITLE "0:"
    INDEX 01 00:11:43
  TRACK 09 AUDIO
    TITLE "4:cjc172_2309"
    INDEX 01 00:11:61
  TRACK 10 AUDIO
    TITLE "0:"
    INDEX 01 00:13:44
  TRACK 11 AUDIO
    TITLE "5:cjc172_2310"
    INDEX 01 00:13:58
  TRACK 12 AUDIO
    TITLE "0:"
    INDEX 01 00:19:37
  TRACK 13 AUDIO
    TITLE "3:cjc172_2311"
    INDEX 01 00:20:15
  TRACK 14 AUDIO
    TITLE "0:"
    INDEX 01 00:21:48
  TRACK 15 AUDIO
    TITLE "4:cjc172_2312"
    INDEX 01 00:21:63
  TRACK 16 AUDIO
    TITLE "0:"
    INDEX 01 00:24:54
  TRACK 17 AUDIO
    TITLE "5:cjc172_2313"
    INDEX 01 00:24:68
  TRACK 18 AUDIO
    TITLE "0:"
    INDEX 01 00:30:39
  TRACK 19 AUDIO
    TITLE "3:cjc172_2314"
    INDEX 01 00:31:19
  TRACK 20 AUDIO
    TITLE "0:"
    INDEX 01 00:32:51
  TRACK 21 AUDIO
    TITLE "4:cjc172_2315"
    INDEX 01 00:32:67
  TRACK 22 AUDIO
    TITLE "0:"
    INDEX 01 00:35:18
  TRACK 23 AUDIO
    TITLE "5:cjc172_2316"
    INDEX 01 00:35:34
  TRACK 24 AUDIO
    TITLE "0:"
    INDEX 01 00:43:32
  TRACK 25 AUDIO
    TITLE "3:cjc172_2317"
    INDEX 01 00:44:10
  TRACK 26 AUDIO
    TITLE "0:"
    INDEX 01 00:45:19
  TRACK 27 AUDIO
    TITLE "4:cjc172_2318"
    INDEX 01 00:45:34
  TRACK 28 AUDIO
    TITLE "0:"
    INDEX 01 00:46:38
  TRACK 29 AUDIO
    TITLE "5:cjc172_2319"
    INDEX 01 00:46:54
  TRACK 30 AUDIO
    TITLE "0:"
    INDEX 01 00:51:35
  TRACK 31 AUDIO
    TITLE "3:cjc172_2320"
    INDEX 01 00:52:13
  TRACK 32 AUDIO
    TITLE "0:"
    INDEX 01 00:53:42
  TRACK 33 AUDIO
    TITLE "4:cjc172_2321"
    INDEX 01 00:53:57
  TRACK 34 AUDIO
    TITLE "0:"
    INDEX 01 00:54:63
  TRACK 35 AUDIO
    TITLE "5:cjc172_2322"
    INDEX 01 00:55:03
  TRACK 36 AUDIO
    TITLE "0:"
    INDEX 01 01:02:15
  TRACK 37 AUDIO
    TITLE "3:cjc172_2323"
    INDEX 01 01:02:68
  TRACK 38 AUDIO
    TITLE "0:"
    INDEX 01 01:03:72
  TRACK 39 AUDIO
    TITLE "4:cjc172_2324"
    INDEX 01 01:04:18
  TRACK 40 AUDIO
    TITLE "0:"
    INDEX 01 01:06:21
  TRACK 41 AUDIO
    TITLE "5:cjc172_2325"
    INDEX 01 01:06:35
  TRACK 42 AUDIO
    TITLE "0:"
    INDEX 01 01:12:67
  TRACK 43 AUDIO
    TITLE "3:cjc172_2326"
    INDEX 01 01:13:45
  TRACK 44 AUDIO
    TITLE "0:"
    INDEX 01 01:15:06
  TRACK 45 AUDIO
    TITLE "4:cjc172_2327"
    INDEX 01 01:15:22
  TRACK 46 AUDIO
    TITLE "0:"
    INDEX 01 01:17:09
  TRACK 47 AUDIO
    TITLE "5:cjc172_2328"
    INDEX 01 01:17:27
  TRACK 48 AUDIO
    TITLE "0:"
    INDEX 01 01:24:33
  TRACK 49 AUDIO
    TITLE "3:cjc172_2329"
    INDEX 01 01:25:10
  TRACK 50 AUDIO
    TITLE "0:"
    INDEX 01 01:26:26
  TRACK 51 AUDIO
    TITLE "4:cjc172_2330"
    INDEX 01 01:26:41
  TRACK 52 AUDIO
    TITLE "0:"
    INDEX 01 01:29:45
  TRACK 53 AUDIO
    TITLE "5:cjc172_2331"
    INDEX 01 01:29:59
  TRACK 54 AUDIO
    TITLE "0:"
    INDEX 01 01:36:20
  TRACK 55 AUDIO
    TITLE "3:cjc172_2332"
    INDEX 01 01:36:73
  TRACK 56 AUDIO
    TITLE "0:"
    INDEX 01 01:38:05
  TRACK 57 AUDIO
    TITLE "4:cjc172_2333"
    INDEX 01 01:38:21
  TRACK 58 AUDIO
    TITLE "0:"
    INDEX 01 01:39:36
  TRACK 59 AUDIO
    TITLE "5:cjc172_2334"
    INDEX 01 01:39:52
  TRACK 60 AUDIO
    TITLE "0:"
    INDEX 01 01:45:45
